<?xml version="1.0" standalone="no"?>
<!DOCTYPE svg PUBLIC "-//W3C//DTD SVG 20010904//EN"
 "http://www.w3.org/TR/2001/REC-SVG-20010904/DTD/svg10.dtd">
<svg version="1.0" xmlns="http://www.w3.org/2000/svg"
 width="150.000000pt" height="150.000000pt" viewBox="0 0 150.000000 150.000000"
 preserveAspectRatio="xMidYMid meet">
<metadata>
Created by potrace 1.14, written by Peter Selinger 2001-2017
</metadata>
<g transform="translate(0.000000,150.000000) scale(0.100000,-0.100000)"
fill="#000000" stroke="none">
<path d="M50 750 l0 -750 690 0 690 0 0 750 0 750 -690 0 -690 0 0 -750z
m1350 0 l0 -720 -660 0 -660 0 0 720 0 720 660 0 660 0 0 -720z"/>
<path d="M916 671 c-12 -19 -4 -358 10 -397 53 -155 313 -169 391 -20 14 25
18 67 20 229 l3 197 -60 0 -59 0 -3 -190 c-3 -177 -4 -191 -24 -211 -12 -11
-39 -23 -61 -26 -32 -4 -45 -1 -69 20 l-29 25 -3 191 -3 191 -54 0 c-30 0 -56
-4 -59 -9z"/>
</g>
</svg>
