<?xml version="1.0" standalone="no"?>
<!DOCTYPE svg PUBLIC "-//W3C//DTD SVG 20010904//EN"
 "http://www.w3.org/TR/2001/REC-SVG-20010904/DTD/svg10.dtd">
<svg version="1.0" xmlns="http://www.w3.org/2000/svg"
 width="512.000000pt" height="512.000000pt" viewBox="0 0 512.000000 512.000000"
 preserveAspectRatio="xMidYMid meet">
<metadata>
Created by potrace 1.14, written by Peter Selinger 2001-2017
</metadata>
<g transform="translate(0.000000,512.000000) scale(0.100000,-0.100000)"
fill="#000000" stroke="none">
<path d="M2402 5096 c-120 -45 -206 -122 -259 -232 -87 -181 -57 -387 78 -529
92 -97 203 -145 339 -145 361 0 582 385 404 704 -30 54 -104 130 -159 161
-118 70 -281 86 -403 41z m244 -255 c86 -39 136 -140 114 -231 -40 -165 -250
-215 -357 -85 -110 133 -15 335 157 335 25 0 63 -9 86 -19z"/>
<path d="M963 4495 c-232 -63 -380 -285 -346 -518 45 -318 376 -492 668 -353
250 119 338 444 184 675 -111 166 -318 246 -506 196z m192 -264 c81 -37 125
-104 125 -188 -1 -117 -87 -203 -205 -203 -83 0 -149 45 -186 125 -35 77 -19
156 46 221 64 64 144 80 220 45z"/>
<path d="M3942 4499 c-234 -46 -397 -281 -363 -523 41 -292 344 -472 627 -374
153 54 273 204 297 375 46 319 -240 586 -561 522z m184 -273 c57 -27 85 -58
110 -121 31 -81 3 -163 -79 -229 -48 -38 -143 -49 -198 -21 -76 39 -120 106
-121 184 0 85 45 155 124 191 57 26 102 25 164 -4z"/>
<path d="M2525 4029 c-143 -40 -113 -252 35 -252 71 0 130 59 130 128 0 83
-85 147 -165 124z"/>
<path d="M1543 3620 c-85 -51 -81 -179 6 -225 61 -31 136 -11 171 48 70 114
-63 247 -177 177z"/>
<path d="M3443 3620 c-85 -51 -81 -179 6 -225 116 -60 239 71 171 182 -37 61
-116 81 -177 43z"/>
<path d="M2486 3599 c-57 -45 -71 -117 -36 -174 21 -35 73 -65 110 -65 37 0
89 30 110 65 53 86 -8 195 -110 195 -33 0 -55 -6 -74 -21z"/>
<path d="M1833 3330 c-85 -51 -81 -179 6 -225 61 -31 136 -11 171 48 70 114
-63 247 -177 177z"/>
<path d="M3153 3330 c-85 -51 -81 -179 6 -225 116 -60 239 71 171 182 -37 61
-116 81 -177 43z"/>
<path d="M2441 3199 c-230 -41 -437 -230 -507 -464 -25 -83 -25 -267 0 -350
64 -213 238 -387 451 -451 83 -25 267 -25 350 0 213 64 387 238 451 451 25 83
25 267 0 350 -63 211 -239 388 -446 449 -67 20 -226 28 -299 15z m256 -281
c258 -95 330 -432 133 -628 -150 -151 -390 -151 -540 0 -151 150 -151 390 0
540 108 109 261 142 407 88z"/>
<path d="M390 3023 c-230 -38 -390 -229 -390 -463 0 -186 94 -339 256 -417
266 -127 576 7 658 286 20 70 20 192 0 262 -65 221 -299 370 -524 332z m124
-264 c88 -22 155 -107 156 -197 1 -174 -201 -270 -335 -159 -125 103 -84 305
72 354 49 15 56 15 107 2z"/>
<path d="M4566 3019 c-113 -19 -253 -115 -312 -215 -87 -147 -87 -341 0 -488
90 -152 288 -244 468 -218 235 35 398 225 398 462 0 185 -94 339 -256 417
-101 48 -189 61 -298 42z m138 -260 c89 -22 156 -107 156 -199 0 -130 -125
-230 -250 -200 -203 49 -212 335 -13 397 49 15 56 15 107 2z"/>
<path d="M1154 2674 c-89 -43 -88 -186 2 -229 89 -42 187 18 187 115 0 97
-100 158 -189 114z"/>
<path d="M1564 2671 c-46 -28 -64 -59 -64 -112 0 -136 186 -178 244 -55 20 43
20 69 0 112 -32 67 -117 93 -180 55z"/>
<path d="M3425 2670 c-34 -22 -65 -74 -65 -108 0 -65 65 -132 129 -132 138 0
183 182 61 245 -40 21 -89 19 -125 -5z"/>
<path d="M3844 2674 c-89 -43 -88 -186 2 -229 89 -42 187 18 187 115 0 97
-100 158 -189 114z"/>
<path d="M1840 2013 c-93 -48 -88 -190 8 -230 86 -36 171 14 179 104 2 28 -2
58 -9 72 -33 61 -116 86 -178 54z"/>
<path d="M3160 2013 c-95 -49 -87 -193 13 -232 105 -40 206 61 166 166 -27 70
-111 101 -179 66z"/>
<path d="M2503 1744 c-122 -60 -79 -244 57 -244 137 0 179 185 56 244 -43 20
-72 20 -113 0z"/>
<path d="M1543 1720 c-85 -51 -81 -179 6 -225 61 -31 136 -11 171 48 70 114
-63 247 -177 177z"/>
<path d="M3443 1720 c-85 -51 -81 -179 6 -225 116 -60 239 71 171 182 -37 61
-116 81 -177 43z"/>
<path d="M1005 1540 c-205 -33 -359 -190 -388 -397 -44 -305 221 -570 526
-526 318 45 493 375 354 667 -87 182 -291 288 -492 256z m163 -279 c124 -63
152 -224 58 -324 -33 -36 -101 -67 -146 -67 -40 0 -127 38 -152 66 -24 28 -58
105 -58 134 0 74 54 160 123 194 44 22 129 20 175 -3z"/>
<path d="M3965 1539 c-143 -21 -278 -122 -342 -255 -115 -241 -16 -521 222
-630 334 -153 711 127 658 489 -37 263 -272 435 -538 396z m158 -273 c44 -18
86 -63 110 -115 70 -157 -107 -334 -264 -264 -52 24 -97 66 -115 110 -29 67
-11 167 39 222 50 55 159 77 230 47z"/>
<path d="M2525 1339 c-79 -22 -116 -107 -80 -183 43 -90 187 -90 230 0 49 103
-42 214 -150 183z"/>
<path d="M2420 911 c-331 -106 -437 -528 -194 -775 150 -152 392 -182 578 -72
110 65 198 199 218 334 34 228 -110 451 -331 516 -72 21 -201 20 -271 -3z
m226 -260 c86 -39 136 -140 114 -231 -40 -165 -250 -215 -357 -85 -110 133
-15 335 157 335 25 0 63 -9 86 -19z"/>
</g>
</svg>
